<svg width="1440" height="391" viewBox="0 0 1440 391" fill="none" xmlns="http://www.w3.org/2000/svg">
<path fill-rule="evenodd" clip-rule="evenodd" d="M177.971 67.5L139 0L100.029 67.5H110.921L81.9093 117.75H93.4564L72.3831 154.25H134V175.147L0 153V391H360H720H1080H1440V153L1305 175.312V154.25H1367.62L1346.54 117.75H1358.09L1329.08 67.5H1338.97L1300 0L1261.03 67.5H1271.92L1242.91 117.75H1254.46L1233.38 154.25H1295V176.965L1143.97 201.928L1126.54 171.75H1138.09L1109.08 121.5H1118.97L1080 54L1041.03 121.5H1051.92L1022.91 171.75H1034.46L1013.38 208.25H1075V212.913L720 242.25L360 212.5L327.067 207.057V201.825H383.654L364.61 168.975H375.045L348.827 123.75H357.766L322.548 63L287.33 123.75H297.173L270.955 168.975H281.39L265.237 196.838L144 176.8V154.25H206.617L185.544 117.75H197.091L168.079 67.5H177.971ZM295.412 201.825L318.03 205.563V201.825H295.412ZM1085 211.674L1105.71 208.25H1085V211.674Z" fill="#0C2645"/>
</svg>
